<svg width="18" height="18" viewBox="0 0 18 18" fill="none" xmlns="http://www.w3.org/2000/svg">
<path d="M17.4354 7.33402C17.5135 7.33402 17.5768 7.39888 17.5768 7.47889V9C17.5768 9.56932 17.5252 10.126 17.4262 10.666C16.66 14.8604 13.0517 18.0303 8.72663 17.9998C3.87356 17.9655 -0.0103565 13.9498 0.000388452 8.97972C0.0110648 4.01857 3.94167 0 8.78859 0C11.1632 0 13.3178 0.964758 14.8996 2.53188C14.9568 2.58845 14.9582 2.68168 14.902 2.7392L12.8007 4.89115C12.7466 4.94656 12.6592 4.948 12.6038 4.89396C11.611 3.92614 10.2677 3.33197 8.78859 3.33197C5.7343 3.33197 3.2748 5.83284 3.25406 8.96066C3.23322 12.109 5.7192 14.668 8.78859 14.668C11.279 14.668 13.3854 12.9832 14.0799 10.666H8.93006C8.85193 10.666 8.78859 10.6011 8.78859 10.5211V7.47886C8.78859 7.39884 8.85193 7.33398 8.93006 7.33398H17.4354V7.33402Z" fill="#2196F3"/>
<path d="M17.435 7.33398H16.3741C16.4522 7.33398 16.5155 7.39885 16.5155 7.47886V8.99997C16.5155 9.56929 16.4639 10.126 16.3649 10.666C15.634 14.6675 12.3162 17.7365 8.2572 17.9837C8.41251 17.9931 8.56884 17.9986 8.72627 17.9997C13.0514 18.0303 16.6597 14.8604 17.4258 10.666C17.5248 10.126 17.5765 9.56929 17.5765 8.99997V7.47883C17.5765 7.39885 17.5131 7.33398 17.435 7.33398Z" fill="#1E88E5"/>
<path d="M3.76106 6.62632L1.09204 4.65138C2.58941 1.87787 5.47483 0 8.7882 0C11.1628 0 13.3174 0.964758 14.8993 2.53188C14.9564 2.58845 14.9579 2.68168 14.9017 2.7392L12.8003 4.89115C12.7463 4.94645 12.6589 4.94817 12.6036 4.89424C11.6108 3.92625 10.2674 3.332 8.7882 3.332C6.55915 3.332 4.63775 4.68144 3.76106 6.62632Z" fill="#F44336"/>
<path d="M2.9906 6.05622L3.76112 6.62635C4.56133 4.85117 6.23205 3.57268 8.2125 3.36297C8.2274 3.36132 8.24171 3.35931 8.25688 3.35784C8.08259 3.34089 7.90597 3.33203 7.72732 3.33203C5.71368 3.33203 3.95878 4.41917 2.9906 6.05622Z" fill="#E53935"/>
<path d="M13.8383 2.53188C13.8954 2.58845 13.8969 2.68168 13.8407 2.73923L12.1351 4.4859C12.2985 4.61317 12.4549 4.74929 12.6034 4.894C12.6588 4.94803 12.7462 4.94659 12.8003 4.89118L14.9016 2.73923C14.9578 2.68168 14.9563 2.58848 14.8992 2.53188C13.3174 0.964758 11.1628 0 8.78818 0C8.60998 0 8.43319 0.00608203 8.25763 0.0168047C10.4217 0.148816 12.3751 1.08232 13.8383 2.53188Z" fill="#E53935"/>
<path d="M15.235 15.1163C13.6301 16.8898 11.3356 17.9999 8.78825 17.9999C5.34758 17.9999 2.36878 15.975 0.926208 13.0251L3.65108 11.1128C4.46876 13.1964 6.46087 14.6679 8.78825 14.6679C10.2488 14.6679 11.5771 14.0884 12.566 13.1417L15.235 15.1163Z" fill="#4CAF50"/>
<path d="M3.65116 11.1128L2.84766 11.6767C3.78089 13.4571 5.61609 14.6679 7.72736 14.6679C7.9059 14.6679 8.08239 14.6589 8.25661 14.642C6.16086 14.4374 4.40578 13.0358 3.65116 11.1128Z" fill="#43A047"/>
<path d="M8.7883 18.0001C11.3357 18.0001 13.6301 16.89 15.235 15.1165L14.5813 14.6328C13.0744 16.5534 10.8138 17.8275 8.25916 17.9837C8.43423 17.9944 8.61062 18.0001 8.7883 18.0001Z" fill="#43A047"/>
<path d="M3.2536 8.99998C3.2536 9.74677 3.3947 10.4599 3.6511 11.1129L0.926198 13.0252C0.333507 11.8141 0 10.4469 0 8.99998C0 7.42273 0.396089 5.94034 1.09208 4.65137L3.76109 6.6263C3.43538 7.3481 3.2536 8.15251 3.2536 8.99998Z" fill="#FFC107"/>
<path d="M2.84758 11.6768L3.65109 11.1129C3.39469 10.4599 3.25359 9.74676 3.25359 8.99997C3.25359 8.15249 3.43537 7.34808 3.76108 6.62628L2.99056 6.05615C2.49022 6.90219 2.19983 7.89497 2.19276 8.96066C2.18624 9.94342 2.42403 10.8688 2.84758 11.6768Z" fill="#FFB300"/>
</svg>
